{
	"asset":{
		"generator":"Khronos glTF Blender I/O v4.0.44",
		"version":"2.0"
	},
	"scene":0,
	"scenes":[
		{
			"name":"Scene",
			"nodes":[
				0,
				1,
				2,
				3,
				4,
				5,
				6,
				7,
				8,
				9,
				10,
				11,
				12,
				13,
				14,
				15
			]
		}
	],
	"nodes":[
		{
			"mesh":0,
			"name":"Plane",
			"translation":[
				26.348613739013672,
				0,
				0.5468002557754517
			]
		},
		{
			"camera":0,
			"name":"1_CAM",
			"rotation":[
				-0.06589706242084503,
				-0.9026873707771301,
				-0.1494191437959671,
				0.39810454845428467
			],
			"translation":[
				-6.958293914794922,
				1.3200000524520874,
				0.598155677318573
			]
		},
		{
			"name":"1_HANDLE",
			"rotation":[
				0.00793479848653078,
				-0.2231023609638214,
				-0.007065370678901672,
				0.9747372269630432
			],
			"translation":[
				-6.958293914794922,
				1.3200000524520874,
				0.598155677318573
			]
		},
		{
			"name":"1_ROT",
			"rotation":[
				0.00793479848653078,
				-0.2231023609638214,
				-0.007065370678901672,
				0.9747372269630432
			]
		},
		{
			"camera":1,
			"name":"2_CAM",
			"rotation":[
				-0.04966351017355919,
				-0.7004581093788147,
				-0.048976972699165344,
				0.7102769017219543
			],
			"translation":[
				-3.7145214080810547,
				1.3950265645980835,
				0.1580256223678589
			]
		},
		{
			"name":"2_HANDLE",
			"rotation":[
				0.008207480423152447,
				0.8880839943885803,
				0.0020253178663551807,
				0.4596037268638611
			],
			"translation":[
				-3.7145214080810547,
				1.3950265645980835,
				0.1580256223678589
			]
		},
		{
			"name":"2_ROT",
			"rotation":[
				0.008207480423152447,
				0.8880839943885803,
				0.0020253178663551807,
				0.4596037268638611
			]
		},
		{
			"camera":2,
			"name":"3_CAM",
			"rotation":[
				-0.020685963332653046,
				-0.15280231833457947,
				-0.003199141239747405,
				0.9880350828170776
			],
			"translation":[
				-1.956411361694336,
				1.4081679582595825,
				-0.16584157943725586
			]
		},
		{
			"name":"3_HANDLE",
			"rotation":[
				-0.01290180254727602,
				0.744438648223877,
				0.006397983990609646,
				0.6675356030464172
			],
			"translation":[
				-1.956411361694336,
				1.4081679582595825,
				-0.16584157943725586
			]
		},
		{
			"name":"3_ROT",
			"rotation":[
				-0.012901803478598595,
				0.744438648223877,
				0.0063979835249483585,
				0.6675356030464172
			]
		},
		{
			"camera":3,
			"name":"4_CAM",
			"rotation":[
				-0.031591106206178665,
				-0.9334238767623901,
				-0.08494521677494049,
				0.3471400737762451
			],
			"translation":[
				-2.347848892211914,
				1.320000171661377,
				-2.304856300354004
			]
		},
		{
			"name":"4_HANDLE",
			"rotation":[
				-0.00016086838149931282,
				0.04029308259487152,
				0.003780221799388528,
				0.9991808533668518
			],
			"translation":[
				-2.347848892211914,
				1.320000171661377,
				-2.304856300354004
			]
		},
		{
			"name":"4_ROT",
			"rotation":[
				-0.0001608683669473976,
				0.04029308259487152,
				0.003780221799388528,
				0.9991808533668518
			]
		},
		{
			"camera":4,
			"name":"5_CAM",
			"rotation":[
				-0.27440065145492554,
				-0.09039106220006943,
				-0.025917649269104004,
				0.9570068120956421
			],
			"translation":[
				1.2963790893554688,
				1.3560773134231567,
				0.38972342014312744
			]
		},
		{
			"name":"5_HANDLE",
			"rotation":[
				-0.006111086346209049,
				0.6992023587226868,
				0.003202537540346384,
				0.7148905396461487
			],
			"translation":[
				1.2963790893554688,
				1.3560773134231567,
				0.38972342014312744
			]
		},
		{
			"name":"5_ROT",
			"rotation":[
				-0.006111086346209049,
				0.6992023587226868,
				0.003202537540346384,
				0.7148905396461487
			]
		}
	],
	"cameras":[
		{
			"name":"Camera.001",
			"perspective":{
				"aspectRatio":1.7777777777777777,
				"yfov":1.024778957977204,
				"zfar":1000,
				"znear":0.10000000149011612
			},
			"type":"perspective"
		},
		{
			"name":"Camera.002",
			"perspective":{
				"aspectRatio":1.7777777777777777,
				"yfov":1.024778957977204,
				"zfar":1000,
				"znear":0.10000000149011612
			},
			"type":"perspective"
		},
		{
			"name":"Camera.003",
			"perspective":{
				"aspectRatio":1.7777777777777777,
				"yfov":1.024778957977204,
				"zfar":1000,
				"znear":0.10000000149011612
			},
			"type":"perspective"
		},
		{
			"name":"Camera.004",
			"perspective":{
				"aspectRatio":1.7777777777777777,
				"yfov":1.024778957977204,
				"zfar":1000,
				"znear":0.10000000149011612
			},
			"type":"perspective"
		},
		{
			"name":"Camera.005",
			"perspective":{
				"aspectRatio":1.7777777777777777,
				"yfov":1.024778957977204,
				"zfar":1000,
				"znear":0.10000000149011612
			},
			"type":"perspective"
		}
	],
	"materials":[
		{
			"emissiveFactor":[
				1,
				1,
				1
			],
			"emissiveTexture":{
				"index":0
			},
			"name":"My_UV-texture_UVMAT",
			"pbrMetallicRoughness":{
				"baseColorFactor":[
					0,
					0,
					0,
					1
				]
			}
		}
	],
	"meshes":[
		{
			"name":"Plane.001",
			"primitives":[
				{
					"attributes":{
						"POSITION":0,
						"NORMAL":1,
						"TEXCOORD_0":2
					},
					"indices":3,
					"material":0
				}
			]
		}
	],
	"textures":[
		{
			"sampler":0,
			"source":0
		}
	],
	"images":[
		{
			"mimeType":"image/jpeg",
			"name":"MyDollhouseTexture.jpg.001",
			"uri":"./MyDollhouseTexture.jpg"
		}
	],
	"accessors":[
		{
			"bufferView":0,
			"componentType":5126,
			"count":2413,
			"max":[
				-21.218059539794922,
				4.2704973220825195,
				13.622117042541504
			],
			"min":[
				-34.950592041015625,
				-1.1920928955078125e-07,
				-11.862786293029785
			],
			"type":"VEC3"
		},
		{
			"bufferView":1,
			"componentType":5126,
			"count":2413,
			"type":"VEC3"
		},
		{
			"bufferView":2,
			"componentType":5126,
			"count":2413,
			"type":"VEC2"
		},
		{
			"bufferView":3,
			"componentType":5123,
			"count":8484,
			"type":"SCALAR"
		}
	],
	"bufferViews":[
		{
			"buffer":0,
			"byteLength":28956,
			"byteOffset":0,
			"target":34962
		},
		{
			"buffer":0,
			"byteLength":28956,
			"byteOffset":28956,
			"target":34962
		},
		{
			"buffer":0,
			"byteLength":19304,
			"byteOffset":57912,
			"target":34962
		},
		{
			"buffer":0,
			"byteLength":16968,
			"byteOffset":77216,
			"target":34963
		}
	],
	"samplers":[
		{
			"magFilter":9729,
			"minFilter":9987
		}
	],
	"buffers":[
		{
			"byteLength":94184,
			"uri":"ofice.bin"
		}
	]
}
